<?xml version="1.0" encoding="UTF-8"?>
<!DOCTYPE svg PUBLIC "-//W3C//DTD SVG 1.1//EN" "http://www.w3.org/Graphics/SVG/1.1/DTD/svg11.dtd">
<svg xmlns="http://www.w3.org/2000/svg" version="1.1" width="204px" height="167px" style="shape-rendering:geometricPrecision; text-rendering:geometricPrecision; image-rendering:optimizeQuality; fill-rule:evenodd; clip-rule:evenodd" xmlns:xlink="http://www.w3.org/1999/xlink">
<g><path style="opacity:0.909" fill="#ff4b41" d="M 121.5,1.5 C 112.833,2.83333 104.167,2.83333 95.5,1.5C 104.167,0.166667 112.833,0.166667 121.5,1.5 Z"/></g>
<g><path style="opacity:0.994" fill="#fd0a06" d="M 94.5,1.5 C 94.8333,1.5 95.1667,1.5 95.5,1.5C 104.167,2.83333 112.833,2.83333 121.5,1.5C 122.167,1.5 122.833,1.5 123.5,1.5C 123.791,2.64911 124.624,3.31577 126,3.5C 127.07,3.47196 127.903,3.13863 128.5,2.5C 128.833,2.5 129.167,2.5 129.5,2.5C 129.711,4.42409 130.377,4.75742 131.5,3.5C 134.076,3.46791 136.409,4.13458 138.5,5.5C 138.369,6.37644 138.702,7.04311 139.5,7.5C 140.687,8.65268 141.687,8.65268 142.5,7.5C 142.833,7.5 143.167,7.5 143.5,7.5C 143.5,8.83333 144.167,9.5 145.5,9.5C 145.833,9.5 146.167,9.5 146.5,9.5C 147.382,11.3838 148.882,12.7171 151,13.5C 151.464,12.9056 151.631,12.2389 151.5,11.5C 152.167,12.1667 152.833,12.8333 153.5,13.5C 154.129,15.9971 155.796,17.3304 158.5,17.5C 161.118,21.4515 164.451,24.7849 168.5,27.5C 169.351,29.8816 170.684,31.8816 172.5,33.5C 173.436,37.7352 173.769,42.0685 173.5,46.5C 172.307,46.9704 171.64,47.9704 171.5,49.5C 171.003,51.8183 170.67,54.1516 170.5,56.5C 166.158,59.5161 162.158,62.8494 158.5,66.5C 153.728,68.2582 148.728,68.9248 143.5,68.5C 143.586,67.5041 143.252,66.6708 142.5,66C 141.128,65.5983 139.795,65.0983 138.5,64.5C 137.893,64.6236 137.56,64.9569 137.5,65.5C 136.833,65.5 136.167,65.5 135.5,65.5C 134.514,63.5923 132.848,62.5923 130.5,62.5C 129.041,62.5674 127.708,62.2341 126.5,61.5C 125.947,59.4482 124.947,59.1148 123.5,60.5C 123.167,60.5 122.833,60.5 122.5,60.5C 122.5,59.5 122.5,58.5 122.5,57.5C 119.344,56.4489 116.344,56.4489 113.5,57.5C 111.167,57.5 108.833,57.5 106.5,57.5C 105.053,56.1148 104.053,56.4482 103.5,58.5C 103.477,59.7471 102.811,61.0804 101.5,62.5C 101.939,65.9858 103.606,67.3191 106.5,66.5C 107.167,66.5 107.833,66.5 108.5,66.5C 108.5,67.8333 109.167,68.5 110.5,68.5C 111.167,68.5 111.833,68.5 112.5,68.5C 112.711,70.4241 113.377,70.7574 114.5,69.5C 115.5,69.5 116.5,69.5 117.5,69.5C 118.784,71.6138 120.784,72.6138 123.5,72.5C 124.167,72.5 124.833,72.5 125.5,72.5C 126.184,74.1852 127.517,75.1852 129.5,75.5C 130.107,75.3764 130.44,75.0431 130.5,74.5C 132.199,74.5271 133.533,75.1938 134.5,76.5C 135.507,78.522 137.174,79.8553 139.5,80.5C 140.5,80.8333 141.167,81.5 141.5,82.5C 141.833,83.5 142.5,84.1667 143.5,84.5C 144.298,86.9663 145.631,88.9663 147.5,90.5C 147.5,95.5 147.5,100.5 147.5,105.5C 144.817,107.885 142.817,110.885 141.5,114.5C 141.167,116.833 139.833,118.167 137.5,118.5C 134.775,118.937 132.775,120.27 131.5,122.5C 131.5,123.167 131.167,123.5 130.5,123.5C 130.44,122.957 130.107,122.624 129.5,122.5C 127.241,122.784 125.574,123.784 124.5,125.5C 123.833,125.5 123.167,125.5 122.5,125.5C 120.735,124.539 118.735,124.205 116.5,124.5C 116.5,125.5 116.5,126.5 116.5,127.5C 111.5,127.5 106.5,127.5 101.5,127.5C 100.448,125.744 98.7812,125.077 96.5,125.5C 95.1667,125.5 93.8333,125.5 92.5,125.5C 89.7565,123.142 86.4232,121.809 82.5,121.5C 81.0413,121.567 79.7079,121.234 78.5,120.5C 78.5,119.167 77.8333,118.5 76.5,118.5C 75.8645,116.205 74.5311,114.539 72.5,113.5C 72.5,111.167 72.5,108.833 72.5,106.5C 74.4947,104.528 76.828,102.861 79.5,101.5C 80.3857,100.675 80.719,99.675 80.5,98.5C 82.8333,98.5 85.1667,98.5 87.5,98.5C 87.6934,101.57 89.0267,102.57 91.5,101.5C 95.6765,101.929 99.6765,102.929 103.5,104.5C 105.048,105.794 107.048,106.461 109.5,106.5C 111.5,106.333 113.5,106.167 115.5,106C 116.973,105.29 117.64,104.124 117.5,102.5C 117.833,102.5 118.167,102.5 118.5,102.5C 119.683,97.3197 117.35,94.653 111.5,94.5C 111.167,94.5 110.833,94.5 110.5,94.5C 109.779,92.6182 108.779,92.2848 107.5,93.5C 106.833,93.5 106.167,93.5 105.5,93.5C 102.848,90.8402 99.5149,89.1735 95.5,88.5C 94.8933,88.6236 94.56,88.9569 94.5,89.5C 91.1161,88.9736 88.1161,87.6403 85.5,85.5C 84.7934,83.8656 83.6268,82.5323 82,81.5C 81.6012,81.7284 81.4346,82.0618 81.5,82.5C 80.5,82.1667 79.8333,81.5 79.5,80.5C 78.8645,78.2054 77.5311,76.5387 75.5,75.5C 75.5,74.8333 75.5,74.1667 75.5,73.5C 75.7148,71.8212 75.0481,70.8212 73.5,70.5C 73.5,66.5 73.5,62.5 73.5,58.5C 74.5,58.5 75.5,58.5 76.5,58.5C 76.3502,54.8053 77.3502,51.472 79.5,48.5C 81.2624,47.7377 82.2624,46.4044 82.5,44.5C 87.0699,42.8841 91.0699,40.5508 94.5,37.5C 94.8333,37.5 95.1667,37.5 95.5,37.5C 96.5676,38.4345 97.901,38.7678 99.5,38.5C 99.5,37.5 99.5,36.5 99.5,35.5C 100.833,35.5 102.167,35.5 103.5,35.5C 108.5,36.8333 113.5,36.8333 118.5,35.5C 119.833,35.5 121.167,35.5 122.5,35.5C 122.369,36.3764 122.702,37.0431 123.5,37.5C 124.687,38.6527 125.687,38.6527 126.5,37.5C 127.167,37.5 127.833,37.5 128.5,37.5C 128.711,39.4241 129.377,39.7574 130.5,38.5C 131.167,38.5 131.833,38.5 132.5,38.5C 132.711,40.4241 133.377,40.7574 134.5,39.5C 135.167,39.8333 135.833,40.1667 136.5,40.5C 138.507,42.8373 141.173,44.1706 144.5,44.5C 150.637,45.8961 151.97,43.8961 148.5,38.5C 147.793,36.8656 146.627,35.5323 145,34.5C 144.601,34.7284 144.435,35.0618 144.5,35.5C 143.833,35.5 143.5,35.1667 143.5,34.5C 142.947,32.4482 141.947,32.1148 140.5,33.5C 139.662,33.1583 139.328,32.4916 139.5,31.5C 138,29.8214 136.167,28.4881 134,27.5C 133.601,27.7284 133.435,28.0618 133.5,28.5C 132.833,28.1667 132.167,27.8333 131.5,27.5C 131.53,26.5028 131.03,25.8361 130,25.5C 128.323,24.3922 126.823,24.3922 125.5,25.5C 124.833,25.5 124.167,25.5 123.5,25.5C 122.817,23.8235 121.483,23.1568 119.5,23.5C 118.167,23.5 116.833,23.5 115.5,23.5C 113.952,22.2057 111.952,21.5391 109.5,21.5C 106.473,21.2865 103.807,21.9532 101.5,23.5C 99.8333,23.5 98.1667,23.5 96.5,23.5C 94.8212,23.2852 93.8212,23.9519 93.5,25.5C 92.8333,25.5 92.1667,25.5 91.5,25.5C 90.3774,24.2426 89.7107,24.5759 89.5,26.5C 88.8333,26.5 88.1667,26.5 87.5,26.5C 87.44,25.9569 87.1067,25.6236 86.5,25.5C 83.7692,27.1916 81.1025,28.8583 78.5,30.5C 78.5,31.1667 78.1667,31.5 77.5,31.5C 76.1667,31.5 75.5,32.1667 75.5,33.5C 74.5,34.1667 73.5,34.8333 72.5,35.5C 70.9731,35.427 69.9731,36.0937 69.5,37.5C 68.1667,39.5 66.5,41.1667 64.5,42.5C 62.7376,43.2623 61.7376,44.5956 61.5,46.5C 61.5,46.8333 61.5,47.1667 61.5,47.5C 59.5,47.5 58.5,48.5 58.5,50.5C 58.5,50.8333 58.5,51.1667 58.5,51.5C 56.0695,53.046 54.7361,55.3793 54.5,58.5C 54.5,58.8333 54.5,59.1667 54.5,59.5C 53.5028,59.4701 52.8361,59.9701 52.5,61C 49.3911,69.7056 48.7244,78.539 50.5,87.5C 50.5,88.8333 50.5,90.1667 50.5,91.5C 50.2852,93.1788 50.9519,94.1788 52.5,94.5C 52.5,95.5 52.5,96.5 52.5,97.5C 51.5291,98.9621 51.8624,100.295 53.5,101.5C 53.53,104.852 54.8633,107.518 57.5,109.5C 58.1667,110.5 58.8333,111.5 59.5,112.5C 59.2291,114.38 59.8958,115.713 61.5,116.5C 63.0941,119.764 65.4275,122.431 68.5,124.5C 70.3254,128.324 73.3254,130.657 77.5,131.5C 78.8233,133.682 80.4899,134.349 82.5,133.5C 84.1667,134.167 85.8333,134.833 87.5,135.5C 87.5774,136.75 88.244,137.583 89.5,138C 91.0657,138.765 92.3991,138.598 93.5,137.5C 93.8333,137.5 94.1667,137.5 94.5,137.5C 95.6546,139.825 97.6546,140.992 100.5,141C 104.833,141.667 109.167,141.667 113.5,141C 114.416,140.722 115.082,140.222 115.5,139.5C 116.5,139.5 117.5,139.5 118.5,139.5C 121.917,139.977 124.584,138.977 126.5,136.5C 129.255,135.656 131.921,134.656 134.5,133.5C 135.623,134.757 136.289,134.424 136.5,132.5C 142.007,131.07 146.34,132.737 149.5,137.5C 149.5,138.833 150.167,139.5 151.5,139.5C 151.5,142.167 151.5,144.833 151.5,147.5C 149.952,147.821 149.285,148.821 149.5,150.5C 148.341,152.25 146.674,153.25 144.5,153.5C 142.545,153.799 141.211,154.799 140.5,156.5C 139.833,156.5 139.167,156.5 138.5,156.5C 137.065,155.904 135.398,155.904 133.5,156.5C 133.5,157.5 133.5,158.5 133.5,159.5C 132.5,159.5 131.5,159.5 130.5,159.5C 129.377,158.243 128.711,158.576 128.5,160.5C 127.5,160.5 126.5,160.5 125.5,160.5C 124.903,159.861 124.07,159.528 123,159.5C 121.624,159.684 120.791,160.351 120.5,161.5C 112.5,162.833 104.5,162.833 96.5,161.5C 95.1214,159.403 93.4547,159.07 91.5,160.5C 90.5,160.5 89.5,160.5 88.5,160.5C 88.2893,158.576 87.6226,158.243 86.5,159.5C 85.8333,159.5 85.1667,159.5 84.5,159.5C 84.5858,158.504 84.2524,157.671 83.5,157C 82.1279,156.598 80.7946,156.098 79.5,155.5C 78.8933,155.624 78.56,155.957 78.5,156.5C 77.8333,156.5 77.1667,156.5 76.5,156.5C 76.2504,155.078 75.417,154.078 74,153.5C 73.5357,154.094 73.369,154.761 73.5,155.5C 69.7783,153.356 66.1116,151.023 62.5,148.5C 62.5,146.5 61.5,145.5 59.5,145.5C 58.5084,145.672 57.8417,145.338 57.5,144.5C 57.1898,142.856 56.1898,141.856 54.5,141.5C 53.8333,141.5 53.5,141.167 53.5,140.5C 52.5977,138.659 51.2644,137.326 49.5,136.5C 48.483,134.089 46.8163,132.422 44.5,131.5C 43.6618,131.158 43.3284,130.492 43.5,129.5C 43.5,128.167 42.8333,127.5 41.5,127.5C 40.3622,123.891 38.6956,120.558 36.5,117.5C 35.3433,114.016 34.01,110.683 32.5,107.5C 31.8102,103.162 30.9769,98.8285 30,94.5C 29.8296,85.657 29.3296,76.9903 28.5,68.5C 28.5,67.5 28.5,66.5 28.5,65.5C 30.8743,62.7482 31.541,59.7482 30.5,56.5C 30.5,56.1667 30.5,55.8333 30.5,55.5C 31.8333,55.5 32.5,54.8333 32.5,53.5C 32.5,52.8333 32.5,52.1667 32.5,51.5C 36.1431,47.566 38.8098,42.8994 40.5,37.5C 40.5,37.1667 40.5,36.8333 40.5,36.5C 42.0481,36.1788 42.7148,35.1788 42.5,33.5C 42.8333,33.5 43.1667,33.5 43.5,33.5C 48.5271,27.8063 53.8604,22.4729 59.5,17.5C 61.7727,17.0432 63.106,15.7099 63.5,13.5C 64.1667,12.8333 64.8333,12.1667 65.5,11.5C 65.369,12.2389 65.5357,12.9056 66,13.5C 68.1184,12.7171 69.6184,11.3838 70.5,9.5C 70.8333,9.5 71.1667,9.5 71.5,9.5C 72.8333,9.5 73.5,8.83333 73.5,7.5C 74.7079,6.76589 76.0413,6.43255 77.5,6.5C 77.7352,7.09674 78.2352,7.43007 79,7.5C 81.6388,6.00559 84.4721,5.33892 87.5,5.5C 87.5,4.5 87.5,3.5 87.5,2.5C 88.1667,2.5 88.8333,2.5 89.5,2.5C 91.4547,3.93025 93.1214,3.59691 94.5,1.5 Z"/></g>
<g><path style="opacity:0.773" fill="#fe5651" d="M 94.5,1.5 C 93.1214,3.59691 91.4547,3.93025 89.5,2.5C 91.0418,1.69929 92.7085,1.36596 94.5,1.5 Z"/></g>
<g><path style="opacity:0.753" fill="#ff6d68" d="M 123.5,1.5 C 125.216,1.62867 126.883,1.962 128.5,2.5C 127.903,3.13863 127.07,3.47196 126,3.5C 124.624,3.31577 123.791,2.64911 123.5,1.5 Z"/></g>
<g><path style="opacity:0.396" fill="#ff8987" d="M 129.5,2.5 C 130.492,2.32842 131.158,2.66175 131.5,3.5C 130.377,4.75742 129.711,4.42409 129.5,2.5 Z"/></g>
<g><path style="opacity:0.949" fill="#ff4c40" d="M 87.5,2.5 C 87.5,3.5 87.5,4.5 87.5,5.5C 84.4721,5.33892 81.6388,6.00559 79,7.5C 78.2352,7.43007 77.7352,7.09674 77.5,6.5C 80.3538,4.27122 83.6871,2.93789 87.5,2.5 Z"/></g>
<g><path style="opacity:0.196" fill="#ff6c66" d="M 138.5,5.5 C 139.995,5.98869 141.329,6.65536 142.5,7.5C 141.687,8.65268 140.687,8.65268 139.5,7.5C 138.702,7.04311 138.369,6.37644 138.5,5.5 Z"/></g>
<g><path style="opacity:0.475" fill="#fd6667" d="M 73.5,7.5 C 73.5,8.83333 72.8333,9.5 71.5,9.5C 71.5,8.16667 72.1667,7.5 73.5,7.5 Z"/></g>
<g><path style="opacity:0.086" fill="#ff8888" d="M 143.5,7.5 C 144.833,7.5 145.5,8.16667 145.5,9.5C 145.5,8.16667 144.833,7.5 143.5,7.5 Z"/></g>
<g><path style="opacity:0.588" fill="#ff706d" d="M 70.5,9.5 C 69.6184,11.3838 68.1184,12.7171 66,13.5C 65.5357,12.9056 65.369,12.2389 65.5,11.5C 67.2838,11.1075 68.9505,10.4408 70.5,9.5 Z"/></g>
<g><path style="opacity:0.545" fill="#ff7873" d="M 146.5,9.5 C 148.167,10.1667 149.833,10.8333 151.5,11.5C 151.631,12.2389 151.464,12.9056 151,13.5C 148.882,12.7171 147.382,11.3838 146.5,9.5 Z"/></g>
<g><path style="opacity:0.239" fill="#fd615e" d="M 63.5,13.5 C 63.106,15.7099 61.7727,17.0432 59.5,17.5C 59.894,15.2901 61.2273,13.9568 63.5,13.5 Z"/></g>
<g><path style="opacity:0.465" fill="#ff756f" d="M 153.5,13.5 C 155.826,14.1447 157.493,15.478 158.5,17.5C 155.796,17.3304 154.129,15.9971 153.5,13.5 Z"/></g>
<g><path style="opacity:0.516" fill="#ff7c78" d="M 115.5,23.5 C 110.833,22.1667 106.167,22.1667 101.5,23.5C 103.807,21.9532 106.473,21.2865 109.5,21.5C 111.952,21.5391 113.952,22.2057 115.5,23.5 Z"/></g>
<g><path style="opacity:0.196" fill="#fe625e" d="M 158.5,17.5 C 162.474,19.7721 165.807,22.7721 168.5,26.5C 168.5,26.8333 168.5,27.1667 168.5,27.5C 164.451,24.7849 161.118,21.4515 158.5,17.5 Z"/></g>
<g><path style="opacity:0.047" fill="#ff9994" d="M 96.5,23.5 C 96.1788,25.0481 95.1788,25.7148 93.5,25.5C 93.8212,23.9519 94.8212,23.2852 96.5,23.5 Z"/></g>
<g><path style="opacity:0.043" fill="#ff9593" d="M 119.5,23.5 C 121.483,23.1568 122.817,23.8235 123.5,25.5C 121.62,25.7709 120.287,25.1042 119.5,23.5 Z"/></g>
<g><path style="opacity:0.106" fill="#fc9190" d="M 91.5,25.5 C 90.8333,25.8333 90.1667,26.1667 89.5,26.5C 89.7107,24.5759 90.3774,24.2426 91.5,25.5 Z"/></g>
<g><path style="opacity:0.255" fill="#ff645c" d="M 125.5,25.5 C 126.823,24.3922 128.323,24.3922 130,25.5C 131.03,25.8361 131.53,26.5028 131.5,27.5C 129.421,27.0293 127.421,26.3627 125.5,25.5 Z"/></g>
<g><path style="opacity:0.392" fill="#fe6866" d="M 59.5,17.5 C 53.8604,22.4729 48.5271,27.8063 43.5,33.5C 46.8613,26.1387 52.1946,20.8054 59.5,17.5 Z"/></g>
<g><path style="opacity:0.055" fill="#ff8985" d="M 87.5,26.5 C 85.0098,28.8139 82.0098,30.1473 78.5,30.5C 81.1025,28.8583 83.7692,27.1916 86.5,25.5C 87.1067,25.6236 87.44,25.9569 87.5,26.5 Z"/></g>
<g><path style="opacity:0.471" fill="#ff8480" d="M 139.5,31.5 C 137.181,31.0075 135.181,30.0075 133.5,28.5C 133.435,28.0618 133.601,27.7284 134,27.5C 136.167,28.4881 138,29.8214 139.5,31.5 Z"/></g>
<g><path style="opacity:0.053" fill="#fe7274" d="M 77.5,31.5 C 77.5,32.8333 76.8333,33.5 75.5,33.5C 75.5,32.1667 76.1667,31.5 77.5,31.5 Z"/></g>
<g><path style="opacity:0.188" fill="#ffa1a0" d="M 168.5,26.5 C 170.588,28.3356 171.921,30.6689 172.5,33.5C 170.684,31.8816 169.351,29.8816 168.5,27.5C 168.5,27.1667 168.5,26.8333 168.5,26.5 Z"/></g>
<g><path style="opacity:0.204" fill="#fe736f" d="M 140.5,33.5 C 141.947,32.1148 142.947,32.4482 143.5,34.5C 142.609,33.8902 141.609,33.5569 140.5,33.5 Z"/></g>
<g><path style="opacity:0.373" fill="#fea1a0" d="M 42.5,33.5 C 42.7148,35.1788 42.0481,36.1788 40.5,36.5C 40.9321,35.2905 41.5987,34.2905 42.5,33.5 Z"/></g>
<g><path style="opacity:0.388" fill="#fe9495" d="M 118.5,35.5 C 113.5,36.8333 108.5,36.8333 103.5,35.5C 108.477,34.3097 113.477,34.3097 118.5,35.5 Z"/></g>
<g><path style="opacity:0.129" fill="#fd9593" d="M 148.5,38.5 C 146.77,37.9744 145.436,36.9744 144.5,35.5C 144.435,35.0618 144.601,34.7284 145,34.5C 146.627,35.5323 147.793,36.8656 148.5,38.5 Z"/></g>
<g><path style="opacity:0.039" fill="#fea1a2" d="M 72.5,35.5 C 72.0269,36.9063 71.0269,37.573 69.5,37.5C 69.9731,36.0937 70.9731,35.427 72.5,35.5 Z"/></g>
<g><path style="opacity:0.184" fill="#ff9390" d="M 122.5,35.5 C 124.199,35.5271 125.533,36.1938 126.5,37.5C 125.687,38.6527 124.687,38.6527 123.5,37.5C 122.702,37.0431 122.369,36.3764 122.5,35.5 Z"/></g>
<g><path style="opacity:0.788" fill="#ff5f59" d="M 99.5,35.5 C 99.5,36.5 99.5,37.5 99.5,38.5C 97.901,38.7678 96.5676,38.4345 95.5,37.5C 96.6049,36.3995 97.9382,35.7329 99.5,35.5 Z"/></g>
<g><path style="opacity:0.412" fill="#ff8282" d="M 128.5,37.5 C 129.492,37.3284 130.158,37.6618 130.5,38.5C 129.377,39.7574 128.711,39.4241 128.5,37.5 Z"/></g>
<g><path style="opacity:0.255" fill="#ff9190" d="M 132.5,38.5 C 133.492,38.3284 134.158,38.6618 134.5,39.5C 133.377,40.7574 132.711,40.4241 132.5,38.5 Z"/></g>
<g><path style="opacity:0.576" fill="#ff6a63" d="M 94.5,37.5 C 91.0699,40.5508 87.0699,42.8841 82.5,44.5C 84.5593,42.4055 86.8926,40.5722 89.5,39C 91.1545,38.3923 92.8211,37.8923 94.5,37.5 Z"/></g>
<g><path style="opacity:0.643" fill="#ff6964" d="M 136.5,40.5 C 139.539,41.2784 142.206,42.6117 144.5,44.5C 141.173,44.1706 138.507,42.8373 136.5,40.5 Z"/></g>
<g><path style="opacity:0.043" fill="#fe9e9b" d="M 64.5,42.5 C 64.2624,44.4044 63.2624,45.7377 61.5,46.5C 61.7376,44.5956 62.7376,43.2623 64.5,42.5 Z"/></g>
<g><path style="opacity:0.024" fill="#ff9594" d="M 40.5,37.5 C 38.8098,42.8994 36.1431,47.566 32.5,51.5C 34.2682,46.1942 36.9348,41.5275 40.5,37.5 Z"/></g>
<g><path style="opacity:0.557" fill="#ff7f7b" d="M 82.5,44.5 C 82.2624,46.4044 81.2624,47.7377 79.5,48.5C 79.7376,46.5956 80.7376,45.2623 82.5,44.5 Z"/></g>
<g><path style="opacity:0.09" fill="#ffb1b2" d="M 61.5,47.5 C 61.1436,49.1898 60.1436,50.1898 58.5,50.5C 58.5,48.5 59.5,47.5 61.5,47.5 Z"/></g>
<g><path style="opacity:0.569" fill="#ff7069" d="M 173.5,46.5 C 173.277,50.1621 172.277,53.4954 170.5,56.5C 170.67,54.1516 171.003,51.8183 171.5,49.5C 171.64,47.9704 172.307,46.9704 173.5,46.5 Z"/></g>
<g><path style="opacity:0.243" fill="#fea1a2" d="M 32.5,53.5 C 32.5,54.8333 31.8333,55.5 30.5,55.5C 30.5,54.1667 31.1667,53.5 32.5,53.5 Z"/></g>
<g><path style="opacity:0.078" fill="#ffb5b2" d="M 58.5,51.5 C 57.528,54.1316 56.1947,56.4649 54.5,58.5C 54.7361,55.3793 56.0695,53.046 58.5,51.5 Z"/></g>
<g><path style="opacity:0.902" fill="#ff5c56" d="M 79.5,48.5 C 77.3502,51.472 76.3502,54.8053 76.5,58.5C 75.5,58.5 74.5,58.5 73.5,58.5C 74.9447,55.6756 76.1114,52.6756 77,49.5C 77.6708,48.7476 78.5041,48.4142 79.5,48.5 Z"/></g>
<g><path style="opacity:0.255" fill="#ff756f" d="M 106.5,57.5 C 105.609,58.1098 104.609,58.4431 103.5,58.5C 104.053,56.4482 105.053,56.1148 106.5,57.5 Z"/></g>
<g><path style="opacity:0.455" fill="#ff5349" d="M 113.5,57.5 C 116.344,56.4489 119.344,56.4489 122.5,57.5C 122.5,58.5 122.5,59.5 122.5,60.5C 119.734,58.9293 116.734,57.9293 113.5,57.5 Z"/></g>
<g><path style="opacity:0.098" fill="#ff7472" d="M 170.5,56.5 C 167.439,60.8882 163.439,64.2215 158.5,66.5C 162.158,62.8494 166.158,59.5161 170.5,56.5 Z"/></g>
<g><path style="opacity:0.133" fill="#fe7670" d="M 123.5,60.5 C 124.947,59.1148 125.947,59.4482 126.5,61.5C 125.391,61.4431 124.391,61.1098 123.5,60.5 Z"/></g>
<g><path style="opacity:0.271" fill="#ffa19f" d="M 30.5,56.5 C 31.541,59.7482 30.8743,62.7482 28.5,65.5C 28.916,62.4173 29.5826,59.4173 30.5,56.5 Z"/></g>
<g><path style="opacity:0.055" fill="#ff706e" d="M 130.5,62.5 C 132.848,62.5923 134.514,63.5923 135.5,65.5C 133.272,65.2231 131.605,64.2231 130.5,62.5 Z"/></g>
<g><path style="opacity:0.725" fill="#ff6560" d="M 101.5,62.5 C 102.955,64.1343 104.622,65.4676 106.5,66.5C 103.606,67.3191 101.939,65.9858 101.5,62.5 Z"/></g>
<g><path style="opacity:0.114" fill="#fea3a2" d="M 108.5,66.5 C 109.833,66.5 110.5,67.1667 110.5,68.5C 110.5,67.1667 109.833,66.5 108.5,66.5 Z"/></g>
<g><path style="opacity:0.031" fill="#fe6760" d="M 143.5,68.5 C 141.456,67.478 139.456,66.478 137.5,65.5C 137.56,64.9569 137.893,64.6236 138.5,64.5C 139.795,65.0983 141.128,65.5983 142.5,66C 143.252,66.6708 143.586,67.5041 143.5,68.5 Z"/></g>
<g><path style="opacity:0.035" fill="#ffbfbe" d="M 52.5,68.5 C 52.5,69.8333 51.8333,70.5 50.5,70.5C 50.5,69.1667 51.1667,68.5 52.5,68.5 Z"/></g>
<g><path style="opacity:0.498" fill="#ff736f" d="M 112.5,68.5 C 113.492,68.3284 114.158,68.6618 114.5,69.5C 113.377,70.7574 112.711,70.4241 112.5,68.5 Z"/></g>
<g><path style="opacity:0.612" fill="#ff6763" d="M 54.5,59.5 C 53.6766,62.4606 53.01,65.4606 52.5,68.5C 51.1667,68.5 50.5,69.1667 50.5,70.5C 50.5,76.1667 50.5,81.8333 50.5,87.5C 48.7244,78.539 49.3911,69.7056 52.5,61C 52.8361,59.9701 53.5028,59.4701 54.5,59.5 Z"/></g>
<g><path style="opacity:0.086" fill="#ff7b70" d="M 117.5,69.5 C 120.015,69.7691 122.015,70.7691 123.5,72.5C 120.784,72.6138 118.784,71.6138 117.5,69.5 Z"/></g>
<g><path style="opacity:0.157" fill="#ff9596" d="M 73.5,70.5 C 75.0481,70.8212 75.7148,71.8212 75.5,73.5C 73.9519,73.1788 73.2852,72.1788 73.5,70.5 Z"/></g>
<g><path style="opacity:0.435" fill="#fe6561" d="M 125.5,72.5 C 127.306,73.0241 128.972,73.6908 130.5,74.5C 130.44,75.0431 130.107,75.3764 129.5,75.5C 127.517,75.1852 126.184,74.1852 125.5,72.5 Z"/></g>
<g><path style="opacity:0.161" fill="#ff7b73" d="M 134.5,76.5 C 136.826,77.1447 138.493,78.478 139.5,80.5C 137.174,79.8553 135.507,78.522 134.5,76.5 Z"/></g>
<g><path style="opacity:0.907" fill="#ff4f45" d="M 28.5,68.5 C 29.3296,76.9903 29.8296,85.657 30,94.5C 30.9769,98.8285 31.8102,103.162 32.5,107.5C 31.8333,107.5 31.1667,107.5 30.5,107.5C 30.5,107.167 30.5,106.833 30.5,106.5C 31.1239,106.083 31.4573,105.416 31.5,104.5C 31.2528,103.287 30.5862,102.62 29.5,102.5C 27.3887,91.1747 27.0553,79.8414 28.5,68.5 Z"/></g>
<g><path style="opacity:0.043" fill="#ff8885" d="M 75.5,75.5 C 77.5311,76.5387 78.8645,78.2054 79.5,80.5C 77.478,79.493 76.1447,77.8263 75.5,75.5 Z"/></g>
<g><path style="opacity:0.016" fill="#fdcec7" d="M 141.5,82.5 C 142.833,82.5 143.5,83.1667 143.5,84.5C 142.5,84.1667 141.833,83.5 141.5,82.5 Z"/></g>
<g><path style="opacity:0.039" fill="#fe7272" d="M 85.5,85.5 C 83.7697,84.9744 82.4363,83.9744 81.5,82.5C 81.4346,82.0618 81.6012,81.7284 82,81.5C 83.6268,82.5323 84.7934,83.8656 85.5,85.5 Z"/></g>
<g><path style="opacity:0.51" fill="#ff6760" d="M 94.5,89.5 C 94.56,88.9569 94.8933,88.6236 95.5,88.5C 99.5149,89.1735 102.848,90.8402 105.5,93.5C 101.721,92.4422 98.0541,91.1089 94.5,89.5 Z"/></g>
<g><path style="opacity:0.02" fill="#ffb4b7" d="M 143.5,84.5 C 145.738,85.8527 147.071,87.8527 147.5,90.5C 145.631,88.9663 144.298,86.9663 143.5,84.5 Z"/></g>
<g><path style="opacity:0.178" fill="#ffa1a1" d="M 50.5,91.5 C 51.9063,91.9731 52.573,92.9731 52.5,94.5C 50.9519,94.1788 50.2852,93.1788 50.5,91.5 Z"/></g>
<g><path style="opacity:0.325" fill="#ff7571" d="M 107.5,93.5 C 108.779,92.2848 109.779,92.6182 110.5,94.5C 109.391,94.4431 108.391,94.1098 107.5,93.5 Z"/></g>
<g><path style="opacity:0.114" fill="#ff8f8e" d="M 52.5,97.5 C 53.4345,98.5676 53.7678,99.901 53.5,101.5C 51.8624,100.295 51.5291,98.9621 52.5,97.5 Z"/></g>
<g><path style="opacity:0.525" fill="#ff5854" d="M 87.5,98.5 C 89.1216,99.1224 90.4549,100.122 91.5,101.5C 89.0267,102.57 87.6934,101.57 87.5,98.5 Z"/></g>
<g><path style="opacity:0.012" fill="#fe8c8a" d="M 111.5,94.5 C 117.35,94.653 119.683,97.3197 118.5,102.5C 117.989,100.805 117.322,99.1386 116.5,97.5C 114.402,97.0428 112.736,96.0428 111.5,94.5 Z"/></g>
<g><path style="opacity:0.329" fill="#ff625b" d="M 80.5,98.5 C 80.719,99.675 80.3857,100.675 79.5,101.5C 76.828,102.861 74.4947,104.528 72.5,106.5C 74.1531,102.847 76.8198,100.18 80.5,98.5 Z"/></g>
<g><path style="opacity:0.196" fill="#fdabab" d="M 29.5,102.5 C 30.5862,102.62 31.2528,103.287 31.5,104.5C 31.4573,105.416 31.1239,106.083 30.5,106.5C 30.1667,105.167 29.8333,103.833 29.5,102.5 Z"/></g>
<g><path style="opacity:0.051" fill="#ff8b89" d="M 53.5,101.5 C 55.4587,103.785 56.792,106.451 57.5,109.5C 54.8633,107.518 53.53,104.852 53.5,101.5 Z"/></g>
<g><path style="opacity:0.373" fill="#fe817f" d="M 117.5,102.5 C 117.64,104.124 116.973,105.29 115.5,106C 113.5,106.167 111.5,106.333 109.5,106.5C 107.048,106.461 105.048,105.794 103.5,104.5C 108.608,106.202 113.275,105.536 117.5,102.5 Z"/></g>
<g><path style="opacity:0.008" fill="#ffa2a1" d="M 147.5,105.5 C 146.618,109.358 144.618,112.358 141.5,114.5C 142.817,110.885 144.817,107.885 147.5,105.5 Z"/></g>
<g><path style="opacity:0.455" fill="#fe807b" d="M 30.5,107.5 C 31.1667,107.5 31.8333,107.5 32.5,107.5C 34.01,110.683 35.3433,114.016 36.5,117.5C 34.0113,114.533 32.0113,111.2 30.5,107.5 Z"/></g>
<g><path style="opacity:0.663" fill="#ff5a57" d="M 166.5,114.5 C 163.833,115.833 161.167,115.833 158.5,114.5C 161.167,113.167 163.833,113.167 166.5,114.5 Z"/></g>
<g><path style="opacity:0.267" fill="#ffa3a1" d="M 59.5,112.5 C 60.6737,113.514 61.3404,114.847 61.5,116.5C 59.8958,115.713 59.2291,114.38 59.5,112.5 Z"/></g>
<g><path style="opacity:0.985" fill="#fd150d" d="M 157.5,114.5 C 157.833,114.5 158.167,114.5 158.5,114.5C 161.167,115.833 163.833,115.833 166.5,114.5C 167.167,114.5 167.833,114.5 168.5,114.5C 168.369,117.367 169.703,119.033 172.5,119.5C 173.403,122.391 173.736,125.391 173.5,128.5C 171.824,129.183 171.157,130.517 171.5,132.5C 169.974,135.893 167.307,137.226 163.5,136.5C 162.5,135.167 161.5,135.167 160.5,136.5C 159.041,136.567 157.708,136.234 156.5,135.5C 156.715,133.821 156.048,132.821 154.5,132.5C 154.201,130.545 153.201,129.211 151.5,128.5C 151.5,126.167 151.5,123.833 151.5,121.5C 154.19,119.807 156.19,117.473 157.5,114.5 Z"/></g>
<g><path style="opacity:0.271" fill="#ff726f" d="M 168.5,114.5 C 170.367,115.76 171.7,117.427 172.5,119.5C 169.703,119.033 168.369,117.367 168.5,114.5 Z"/></g>
<g><path style="opacity:0.302" fill="#ff776f" d="M 72.5,113.5 C 74.5311,114.539 75.8645,116.205 76.5,118.5C 74.3121,117.556 72.9788,115.889 72.5,113.5 Z"/></g>
<g><path style="opacity:0.245" fill="#ff817f" d="M 157.5,114.5 C 156.19,117.473 154.19,119.807 151.5,121.5C 152.589,118.311 154.589,115.978 157.5,114.5 Z"/></g>
<g><path style="opacity:0.294" fill="#fc6b6d" d="M 76.5,118.5 C 77.8333,118.5 78.5,119.167 78.5,120.5C 77.1667,120.5 76.5,119.833 76.5,118.5 Z"/></g>
<g><path style="opacity:0.337" fill="#ff817e" d="M 61.5,116.5 C 64.5431,118.543 66.8764,121.21 68.5,124.5C 65.4275,122.431 63.0941,119.764 61.5,116.5 Z"/></g>
<g><path style="opacity:0.353" fill="#ff5c53" d="M 137.5,118.5 C 136.267,120.796 134.267,122.13 131.5,122.5C 132.775,120.27 134.775,118.937 137.5,118.5 Z"/></g>
<g><path style="opacity:0.722" fill="#ff665f" d="M 82.5,121.5 C 86.4232,121.809 89.7565,123.142 92.5,125.5C 88.6871,125.062 85.3538,123.729 82.5,121.5 Z"/></g>
<g><path style="opacity:0.184" fill="#ff7f7d" d="M 36.5,117.5 C 38.6956,120.558 40.3622,123.891 41.5,127.5C 38.7036,124.806 37.0369,121.472 36.5,117.5 Z"/></g>
<g><path style="opacity:0.259" fill="#ff726d" d="M 130.5,123.5 C 128.698,124.458 126.698,125.125 124.5,125.5C 125.574,123.784 127.241,122.784 129.5,122.5C 130.107,122.624 130.44,122.957 130.5,123.5 Z"/></g>
<g><path style="opacity:0.008" fill="#ff635f" d="M 96.5,125.5 C 98.7812,125.077 100.448,125.744 101.5,127.5C 99.2188,127.923 97.5521,127.256 96.5,125.5 Z"/></g>
<g><path style="opacity:0.008" fill="#ff514b" d="M 122.5,125.5 C 121.01,127.28 119.01,127.946 116.5,127.5C 116.5,126.5 116.5,125.5 116.5,124.5C 118.735,124.205 120.735,124.539 122.5,125.5 Z"/></g>
<g><path style="opacity:0.122" fill="#ff9b99" d="M 41.5,127.5 C 42.8333,127.5 43.5,128.167 43.5,129.5C 42.1667,129.5 41.5,128.833 41.5,127.5 Z"/></g>
<g><path style="opacity:0.635" fill="#ff4c43" d="M 68.5,124.5 C 69.5832,124.539 70.5832,124.873 71.5,125.5C 73.6092,127.522 75.6092,129.522 77.5,131.5C 73.3254,130.657 70.3254,128.324 68.5,124.5 Z"/></g>
<g><path style="opacity:0.216" fill="#ff9294" d="M 151.5,128.5 C 153.201,129.211 154.201,130.545 154.5,132.5C 152.554,131.965 151.554,130.632 151.5,128.5 Z"/></g>
<g><path style="opacity:0.588" fill="#ff756c" d="M 173.5,128.5 C 173.771,130.38 173.104,131.713 171.5,132.5C 171.157,130.517 171.824,129.183 173.5,128.5 Z"/></g>
<g><path style="opacity:0.435" fill="#fe5e55" d="M 77.5,131.5 C 79.403,131.796 81.0697,132.463 82.5,133.5C 80.4899,134.349 78.8233,133.682 77.5,131.5 Z"/></g>
<g><path style="opacity:0.627" fill="#ff726f" d="M 136.5,132.5 C 136.289,134.424 135.623,134.757 134.5,133.5C 134.842,132.662 135.508,132.328 136.5,132.5 Z"/></g>
<g><path style="opacity:0.092" fill="#ffacaa" d="M 44.5,131.5 C 46.8163,132.422 48.483,134.089 49.5,136.5C 47.1837,135.578 45.517,133.911 44.5,131.5 Z"/></g>
<g><path style="opacity:0.012" fill="#fe7873" d="M 154.5,132.5 C 156.048,132.821 156.715,133.821 156.5,135.5C 155.599,134.71 154.932,133.71 154.5,132.5 Z"/></g>
<g><path style="opacity:0.373" fill="#fea7a7" d="M 160.5,136.5 C 161.5,135.167 162.5,135.167 163.5,136.5C 162.798,137.116 161.798,137.116 160.5,136.5 Z"/></g>
<g><path style="opacity:0.557" fill="#ff6b63" d="M 87.5,135.5 C 89.5,136.167 91.5,136.833 93.5,137.5C 92.3991,138.598 91.0657,138.765 89.5,138C 88.244,137.583 87.5774,136.75 87.5,135.5 Z"/></g>
<g><path style="opacity:0.02" fill="#ff9594" d="M 49.5,136.5 C 51.2644,137.326 52.5977,138.659 53.5,140.5C 51.2901,140.106 49.9568,138.773 49.5,136.5 Z"/></g>
<g><path style="opacity:0.725" fill="#ff645b" d="M 126.5,136.5 C 124.584,138.977 121.917,139.977 118.5,139.5C 118.611,138.883 118.944,138.383 119.5,138C 121.866,137.56 124.199,137.06 126.5,136.5 Z"/></g>
<g><path style="opacity:0.325" fill="#fe918d" d="M 149.5,137.5 C 150.833,137.5 151.5,138.167 151.5,139.5C 151.5,138.167 150.833,137.5 149.5,137.5 Z"/></g>
<g><path style="opacity:0.565" fill="#ff5149" d="M 94.5,137.5 C 101.276,139.334 108.276,140.001 115.5,139.5C 115.082,140.222 114.416,140.722 113.5,141C 109.167,141.667 104.833,141.667 100.5,141C 97.6546,140.992 95.6546,139.825 94.5,137.5 Z"/></g>
<g><path style="opacity:0.114" fill="#ff8784" d="M 54.5,141.5 C 56.1898,141.856 57.1898,142.856 57.5,144.5C 55.8102,144.144 54.8102,143.144 54.5,141.5 Z"/></g>
<g><path style="opacity:0.412" fill="#ff8180" d="M 59.5,145.5 C 61.5,145.5 62.5,146.5 62.5,148.5C 60.8102,148.144 59.8102,147.144 59.5,145.5 Z"/></g>
<g><path style="opacity:0.008" fill="#ffb4b5" d="M 151.5,147.5 C 151.068,148.71 150.401,149.71 149.5,150.5C 149.285,148.821 149.952,147.821 151.5,147.5 Z"/></g>
<g><path style="opacity:0.361" fill="#ff9796" d="M 76.5,156.5 C 75.609,155.89 74.609,155.557 73.5,155.5C 73.369,154.761 73.5357,154.094 74,153.5C 75.417,154.078 76.2504,155.078 76.5,156.5 Z"/></g>
<g><path style="opacity:0.067" fill="#ff9d9b" d="M 144.5,153.5 C 143.789,155.201 142.455,156.201 140.5,156.5C 141.211,154.799 142.545,153.799 144.5,153.5 Z"/></g>
<g><path style="opacity:0.267" fill="#ff6c6b" d="M 84.5,159.5 C 82.4561,158.478 80.4561,157.478 78.5,156.5C 78.56,155.957 78.8933,155.624 79.5,155.5C 80.7946,156.098 82.1279,156.598 83.5,157C 84.2524,157.671 84.5858,158.504 84.5,159.5 Z"/></g>
<g><path style="opacity:0.325" fill="#ff6a64" d="M 138.5,156.5 C 136.706,157.233 135.039,158.233 133.5,159.5C 133.5,158.5 133.5,157.5 133.5,156.5C 135.398,155.904 137.065,155.904 138.5,156.5 Z"/></g>
<g><path style="opacity:0.11" fill="#fb8c8f" d="M 88.5,160.5 C 87.5084,160.672 86.8417,160.338 86.5,159.5C 87.6226,158.243 88.2893,158.576 88.5,160.5 Z"/></g>
<g><path style="opacity:0.765" fill="#ff5f5b" d="M 91.5,160.5 C 93.4547,159.07 95.1214,159.403 96.5,161.5C 94.7085,161.634 93.0418,161.301 91.5,160.5 Z"/></g>
<g><path style="opacity:0.773" fill="#fe5852" d="M 125.5,160.5 C 123.958,161.301 122.292,161.634 120.5,161.5C 120.791,160.351 121.624,159.684 123,159.5C 124.07,159.528 124.903,159.861 125.5,160.5 Z"/></g>
<g><path style="opacity:0.114" fill="#ff898c" d="M 130.5,159.5 C 130.158,160.338 129.492,160.672 128.5,160.5C 128.711,158.576 129.377,158.243 130.5,159.5 Z"/></g>
</svg>
